<mxfile host="app.diagrams.net" modified="2024-02-17T14:55:00.136Z" agent="Mozilla/5.0 (Windows NT 10.0; Win64; x64) AppleWebKit/537.36 (KHTML, like Gecko) Chrome/121.0.0.0 Safari/537.36" version="23.1.4" etag="5GWG2ih0-xoAL4tPYyOS" type="github">
  <diagram name="Page-1" id="-8-UsMF40BnLmy5UXp28">
    <mxGraphModel>
      <root>
        <mxCell id="0" />
        <mxCell id="1" parent="0" />
      </root>
    </mxGraphModel>
  </diagram>
</mxfile>
